<?xml version="1.0" encoding="utf-8"?>
<!-- Generator: Adobe Illustrator 22.0.0, SVG Export Plug-In . SVG Version: 6.00 Build 0)  -->
<svg version="1.1" id="Layer_1" xmlns="http://www.w3.org/2000/svg" xmlns:xlink="http://www.w3.org/1999/xlink" x="0px" y="0px"
	 viewBox="0 0 358.4 124.2" style="enable-background:new 0 0 358.4 124.2;" xml:space="preserve">
<g>
	<path d="M130.8,60.1c4.8,1,8.3,2.1,10.4,3.4c2.2,1.3,3.3,3,3.3,5.2c0,2.1-0.9,3.8-2.6,5.1c-1.8,1.3-4.3,2-7.8,2
		c-3.7,0-6.6-0.8-8.8-2.5c-2.2-1.7-3.4-4.1-3.5-7.3h-17c0,4,1.2,7.8,3.7,11.3c2.5,3.5,5.9,6.2,10.3,8.2c4.4,2,9.3,3,15,3
		c8.3,0,15.1-1.9,20.3-5.7c5.2-3.8,7.9-8.7,7.9-14.8c0-8.5-4.7-14.6-14.2-18c-3.1-1.1-6.8-2.1-11.3-3c-4.5-0.9-7.6-1.9-9.5-3.2
		c-1.9-1.2-2.8-2.8-2.8-4.8c0-2.1,0.8-3.8,2.5-5.2c1.7-1.4,4-2,7-2c3.5,0,6.1,0.8,7.7,2.5c1.7,1.7,2.5,3.8,2.5,6.3h17.9
		c0-6.4-2.6-11.6-7.6-15.6c-5.1-4-11.9-6-20.4-6c-8,0-14.4,2-19.4,6c-4.9,4-7.4,9-7.4,14.9C106.8,50,114.8,56.7,130.8,60.1z"/>
	<path d="M192.1,61.8l-12.5-41.7h-19.3l23.5,67.2l-2.1,5.5c-0.9,2.4-2.3,4.1-3.9,5.1c-1.7,1-4.2,1.5-7.6,1.5l-80.3-0.1L69.7,75
		l0.6-0.8l5.6-7.8l33.4-46H82.7L61.8,49.2l-6.2,8.6L37.9,82.1V7.7L15.3,20v93.3l-0.2,0.3h0.2h22.6h3.9l16.4-22.6l19.2,22.6h19
		c25.5,0.5,77,0.7,79,0.7c9.2,0,15.8-4.4,19.8-13.1l1.5-3.5l26.9-77.4h-19.2L192.1,61.8z"/>
	<polygon points="267.6,61.8 243.8,20 227.6,20 227.6,87.1 243.8,87.1 243.8,45.3 267.6,87.1 283.8,87.1 283.8,20 267.6,20 	"/>
	<path d="M327,71.2c-2.1,1.8-4.7,2.7-8.1,2.7c-4.3,0-7.5-1.5-9.6-4.5c-2.1-3-3.2-8-3.2-14.9v-1.9c0-6.8,1.1-11.8,3.2-14.8
		c2.1-3,5.3-4.6,9.4-4.6c3.4,0,6.1,1.1,8.2,3.3c2.1,2.2,3.1,5,3.2,8.5H347c-0.1-7.9-2.7-14.3-7.7-19c-5.1-4.8-11.8-7.2-20.2-7.2
		c-9.6,0-17.1,3.1-22.6,9.2c-5.5,6.2-8.2,14.4-8.2,24.7V54c0,10.7,2.8,19.2,8.3,25.2c5.5,6.1,13.1,9.1,22.7,9.1c5.1,0,9.8-1,14-3.1
		c4.2-2.1,7.6-5,10-8.8c2.4-3.8,3.7-7.9,3.7-12.5h-16.8C330.1,67,329.1,69.4,327,71.2z"/>
	<ellipse transform="matrix(0.9732 -0.2298 0.2298 0.9732 -3.5753 79.3123)" cx="338.8" cy="55" rx="6.6" ry="6.6"/>
</g>
</svg>
